<svg xmlns="http://www.w3.org/2000/svg" version="1.1" xmlns:xlink="http://www.w3.org/1999/xlink" xmlns:svgjs="http://svgjs.com/svgjs" width="1440" height="660" preserveAspectRatio="none" viewBox="0 0 1440 660"><g mask="url(&quot;#SvgjsMask1160&quot;)" fill="none"><rect width="1440" height="660" x="0" y="0" fill="#0e2a47"></rect><path d="M44.28 283.75L136.08 336.75L136.08 442.75L44.28 495.75L-47.52 442.75L-47.52 336.75zM136.08 442.75L227.88 495.75L227.88 601.75L136.08 654.75L44.28 601.75L44.28 495.75zM44.28 601.75L136.08 654.75L136.08 760.75L44.28 813.75L-47.52 760.75L-47.52 654.75zM227.88 -34.25L319.68 18.75L319.68 124.75L227.88 177.75L136.08 124.75L136.08 18.75zM319.68 442.75L411.49 495.75L411.49 601.75L319.68 654.75L227.88 601.75L227.88 495.75zM503.29 124.75L595.09 177.75L595.09 283.75L503.29 336.75L411.49 283.75L411.49 177.75zM686.89 124.75L778.69 177.75L778.69 283.75L686.89 336.75L595.09 283.75L595.09 177.75zM595.09 283.75L686.89 336.75L686.89 442.75L595.09 495.75L503.29 442.75L503.29 336.75zM778.69 -34.25L870.49 18.75L870.49 124.75L778.69 177.75L686.89 124.75L686.89 18.75zM778.69 283.75L870.49 336.75L870.49 442.75L778.69 495.75L686.89 442.75L686.89 336.75zM778.69 601.75L870.49 654.75L870.49 760.75L778.69 813.75L686.89 760.75L686.89 654.75zM962.29 -34.25L1054.09 18.75L1054.09 124.75L962.29 177.75L870.49 124.75L870.49 18.75zM962.29 283.75L1054.09 336.75L1054.09 442.75L962.29 495.75L870.49 442.75L870.49 336.75zM1054.09 442.75L1145.9 495.75L1145.9 601.75L1054.09 654.75L962.29 601.75L962.29 495.75zM1145.9 -34.25L1237.7 18.75L1237.7 124.75L1145.9 177.75L1054.09 124.75L1054.09 18.75zM1145.9 283.75L1237.7 336.75L1237.7 442.75L1145.9 495.75L1054.09 442.75L1054.09 336.75zM1237.7 442.75L1329.5 495.75L1329.5 601.75L1237.7 654.75L1145.9 601.75L1145.9 495.75zM1421.3 442.75L1513.1 495.75L1513.1 601.75L1421.3 654.75L1329.5 601.75L1329.5 495.75zM1329.5 601.75L1421.3 654.75L1421.3 760.75L1329.5 813.75L1237.7 760.75L1237.7 654.75z" stroke="#03305d" stroke-width="2"></path><path d="M33.68 283.75 a10.6 10.6 0 1 0 21.2 0 a10.6 10.6 0 1 0 -21.2 0zM125.48 336.75 a10.6 10.6 0 1 0 21.2 0 a10.6 10.6 0 1 0 -21.2 0zM125.48 442.75 a10.6 10.6 0 1 0 21.2 0 a10.6 10.6 0 1 0 -21.2 0zM33.68 495.75 a10.6 10.6 0 1 0 21.2 0 a10.6 10.6 0 1 0 -21.2 0zM-58.12 442.75 a10.6 10.6 0 1 0 21.2 0 a10.6 10.6 0 1 0 -21.2 0zM-58.12 336.75 a10.6 10.6 0 1 0 21.2 0 a10.6 10.6 0 1 0 -21.2 0zM217.28 495.75 a10.6 10.6 0 1 0 21.2 0 a10.6 10.6 0 1 0 -21.2 0zM217.28 601.75 a10.6 10.6 0 1 0 21.2 0 a10.6 10.6 0 1 0 -21.2 0zM125.48 654.75 a10.6 10.6 0 1 0 21.2 0 a10.6 10.6 0 1 0 -21.2 0zM33.68 601.75 a10.6 10.6 0 1 0 21.2 0 a10.6 10.6 0 1 0 -21.2 0zM125.48 760.75 a10.6 10.6 0 1 0 21.2 0 a10.6 10.6 0 1 0 -21.2 0zM33.68 813.75 a10.6 10.6 0 1 0 21.2 0 a10.6 10.6 0 1 0 -21.2 0zM-58.12 760.75 a10.6 10.6 0 1 0 21.2 0 a10.6 10.6 0 1 0 -21.2 0zM-58.12 654.75 a10.6 10.6 0 1 0 21.2 0 a10.6 10.6 0 1 0 -21.2 0zM217.28 -34.25 a10.6 10.6 0 1 0 21.2 0 a10.6 10.6 0 1 0 -21.2 0zM309.08 18.75 a10.6 10.6 0 1 0 21.2 0 a10.6 10.6 0 1 0 -21.2 0zM309.08 124.75 a10.6 10.6 0 1 0 21.2 0 a10.6 10.6 0 1 0 -21.2 0zM217.28 177.75 a10.6 10.6 0 1 0 21.2 0 a10.6 10.6 0 1 0 -21.2 0zM125.48 124.75 a10.6 10.6 0 1 0 21.2 0 a10.6 10.6 0 1 0 -21.2 0zM125.48 18.75 a10.6 10.6 0 1 0 21.2 0 a10.6 10.6 0 1 0 -21.2 0zM309.08 442.75 a10.6 10.6 0 1 0 21.2 0 a10.6 10.6 0 1 0 -21.2 0zM400.89 495.75 a10.6 10.6 0 1 0 21.2 0 a10.6 10.6 0 1 0 -21.2 0zM400.89 601.75 a10.6 10.6 0 1 0 21.2 0 a10.6 10.6 0 1 0 -21.2 0zM309.08 654.75 a10.6 10.6 0 1 0 21.2 0 a10.6 10.6 0 1 0 -21.2 0zM492.69 124.75 a10.6 10.6 0 1 0 21.2 0 a10.6 10.6 0 1 0 -21.2 0zM584.49 177.75 a10.6 10.6 0 1 0 21.2 0 a10.6 10.6 0 1 0 -21.2 0zM584.49 283.75 a10.6 10.6 0 1 0 21.2 0 a10.6 10.6 0 1 0 -21.2 0zM492.69 336.75 a10.6 10.6 0 1 0 21.2 0 a10.6 10.6 0 1 0 -21.2 0zM400.89 283.75 a10.6 10.6 0 1 0 21.2 0 a10.6 10.6 0 1 0 -21.2 0zM400.89 177.75 a10.6 10.6 0 1 0 21.2 0 a10.6 10.6 0 1 0 -21.2 0zM676.29 124.75 a10.6 10.6 0 1 0 21.2 0 a10.6 10.6 0 1 0 -21.2 0zM768.09 177.75 a10.6 10.6 0 1 0 21.2 0 a10.6 10.6 0 1 0 -21.2 0zM768.09 283.75 a10.6 10.6 0 1 0 21.2 0 a10.6 10.6 0 1 0 -21.2 0zM676.29 336.75 a10.6 10.6 0 1 0 21.2 0 a10.6 10.6 0 1 0 -21.2 0zM676.29 442.75 a10.6 10.6 0 1 0 21.2 0 a10.6 10.6 0 1 0 -21.2 0zM584.49 495.75 a10.6 10.6 0 1 0 21.2 0 a10.6 10.6 0 1 0 -21.2 0zM492.69 442.75 a10.6 10.6 0 1 0 21.2 0 a10.6 10.6 0 1 0 -21.2 0zM768.09 -34.25 a10.6 10.6 0 1 0 21.2 0 a10.6 10.6 0 1 0 -21.2 0zM859.89 18.75 a10.6 10.6 0 1 0 21.2 0 a10.6 10.6 0 1 0 -21.2 0zM859.89 124.75 a10.6 10.6 0 1 0 21.2 0 a10.6 10.6 0 1 0 -21.2 0zM676.29 18.75 a10.6 10.6 0 1 0 21.2 0 a10.6 10.6 0 1 0 -21.2 0zM859.89 336.75 a10.6 10.6 0 1 0 21.2 0 a10.6 10.6 0 1 0 -21.2 0zM859.89 442.75 a10.6 10.6 0 1 0 21.2 0 a10.6 10.6 0 1 0 -21.2 0zM768.09 495.75 a10.6 10.6 0 1 0 21.2 0 a10.6 10.6 0 1 0 -21.2 0zM768.09 601.75 a10.6 10.6 0 1 0 21.2 0 a10.6 10.6 0 1 0 -21.2 0zM859.89 654.75 a10.6 10.6 0 1 0 21.2 0 a10.6 10.6 0 1 0 -21.2 0zM859.89 760.75 a10.6 10.6 0 1 0 21.2 0 a10.6 10.6 0 1 0 -21.2 0zM768.09 813.75 a10.6 10.6 0 1 0 21.2 0 a10.6 10.6 0 1 0 -21.2 0zM676.29 760.75 a10.6 10.6 0 1 0 21.2 0 a10.6 10.6 0 1 0 -21.2 0zM676.29 654.75 a10.6 10.6 0 1 0 21.2 0 a10.6 10.6 0 1 0 -21.2 0zM951.69 -34.25 a10.6 10.6 0 1 0 21.2 0 a10.6 10.6 0 1 0 -21.2 0zM1043.49 18.75 a10.6 10.6 0 1 0 21.2 0 a10.6 10.6 0 1 0 -21.2 0zM1043.49 124.75 a10.6 10.6 0 1 0 21.2 0 a10.6 10.6 0 1 0 -21.2 0zM951.69 177.75 a10.6 10.6 0 1 0 21.2 0 a10.6 10.6 0 1 0 -21.2 0zM951.69 283.75 a10.6 10.6 0 1 0 21.2 0 a10.6 10.6 0 1 0 -21.2 0zM1043.49 336.75 a10.6 10.6 0 1 0 21.2 0 a10.6 10.6 0 1 0 -21.2 0zM1043.49 442.75 a10.6 10.6 0 1 0 21.2 0 a10.6 10.6 0 1 0 -21.2 0zM951.69 495.75 a10.6 10.6 0 1 0 21.2 0 a10.6 10.6 0 1 0 -21.2 0zM1135.3 495.75 a10.6 10.6 0 1 0 21.2 0 a10.6 10.6 0 1 0 -21.2 0zM1135.3 601.75 a10.6 10.6 0 1 0 21.2 0 a10.6 10.6 0 1 0 -21.2 0zM1043.49 654.75 a10.6 10.6 0 1 0 21.2 0 a10.6 10.6 0 1 0 -21.2 0zM951.69 601.75 a10.6 10.6 0 1 0 21.2 0 a10.6 10.6 0 1 0 -21.2 0zM1135.3 -34.25 a10.6 10.6 0 1 0 21.2 0 a10.6 10.6 0 1 0 -21.2 0zM1227.1 18.75 a10.6 10.6 0 1 0 21.2 0 a10.6 10.6 0 1 0 -21.2 0zM1227.1 124.75 a10.6 10.6 0 1 0 21.2 0 a10.6 10.6 0 1 0 -21.2 0zM1135.3 177.75 a10.6 10.6 0 1 0 21.2 0 a10.6 10.6 0 1 0 -21.2 0zM1135.3 283.75 a10.6 10.6 0 1 0 21.2 0 a10.6 10.6 0 1 0 -21.2 0zM1227.1 336.75 a10.6 10.6 0 1 0 21.2 0 a10.6 10.6 0 1 0 -21.2 0zM1227.1 442.75 a10.6 10.6 0 1 0 21.2 0 a10.6 10.6 0 1 0 -21.2 0zM1318.9 495.75 a10.6 10.6 0 1 0 21.2 0 a10.6 10.6 0 1 0 -21.2 0zM1318.9 601.75 a10.6 10.6 0 1 0 21.2 0 a10.6 10.6 0 1 0 -21.2 0zM1227.1 654.75 a10.6 10.6 0 1 0 21.2 0 a10.6 10.6 0 1 0 -21.2 0zM1410.7 442.75 a10.6 10.6 0 1 0 21.2 0 a10.6 10.6 0 1 0 -21.2 0zM1502.5 495.75 a10.6 10.6 0 1 0 21.2 0 a10.6 10.6 0 1 0 -21.2 0zM1502.5 601.75 a10.6 10.6 0 1 0 21.2 0 a10.6 10.6 0 1 0 -21.2 0zM1410.7 654.75 a10.6 10.6 0 1 0 21.2 0 a10.6 10.6 0 1 0 -21.2 0zM1410.7 760.75 a10.6 10.6 0 1 0 21.2 0 a10.6 10.6 0 1 0 -21.2 0zM1318.9 813.75 a10.6 10.6 0 1 0 21.2 0 a10.6 10.6 0 1 0 -21.2 0zM1227.1 760.75 a10.6 10.6 0 1 0 21.2 0 a10.6 10.6 0 1 0 -21.2 0z" fill="#03305d"></path><path d="M33.58 -33.32L182.54 52.68L182.54 224.68L33.58 310.68L-115.38 224.68L-115.38 52.68zM182.54 224.68L331.5 310.68L331.5 482.68L182.54 568.68L33.58 482.68L33.58 310.68zM33.58 482.68L182.54 568.68L182.54 740.68L33.58 826.68L-115.38 740.68L-115.38 568.68zM331.5 482.68L480.46 568.68L480.46 740.68L331.5 826.68L182.54 740.68L182.54 568.68zM480.46 740.68L629.42 826.68L629.42 998.68L480.46 1084.68L331.5 998.68L331.5 826.68zM629.42 -33.32L778.38 52.68L778.38 224.68L629.42 310.68L480.46 224.68L480.46 52.68zM927.34 -33.32L1076.3 52.68L1076.3 224.68L927.34 310.68L778.38 224.68L778.38 52.68zM1225.26 482.68L1374.23 568.68L1374.23 740.68L1225.26 826.68L1076.3 740.68L1076.3 568.68z" stroke="rgba(6, 80, 156, 0.93)" stroke-width="2"></path></g><defs><mask id="SvgjsMask1160"><rect width="1440" height="660" fill="#ffffff"></rect></mask></defs></svg>